<svg xmlns="http://www.w3.org/2000/svg" width="1200" height="430" viewBox="0 0 1200 430" role="img" aria-labelledby="title desc">
  <title id="title">Noctweave direct message lifecycle</title>
  <desc id="desc">Five steps show signed contact exchange, post-quantum session setup, local message sealing, ciphertext relay delivery, and recipient verification and decryption.</desc>
  <defs>
    <linearGradient id="background" x1="0" y1="0" x2="1" y2="1">
      <stop offset="0" stop-color="#0a0d19"/>
      <stop offset="1" stop-color="#0c252c"/>
    </linearGradient>
    <marker id="arrow" markerWidth="10" markerHeight="10" refX="8" refY="5" orient="auto">
      <path d="M1 1 9 5 1 9Z" fill="#64748b"/>
    </marker>
  </defs>
  <rect width="1200" height="430" rx="30" fill="url(#background)"/>
  <g font-family="Inter, ui-sans-serif, system-ui, -apple-system, BlinkMacSystemFont, Segoe UI, sans-serif">
    <text x="60" y="62" fill="#f8fafc" font-size="28" font-weight="750">From contact code to decrypted message</text>
    <text x="60" y="94" fill="#94a3b8" font-size="16">Private material stays on client devices throughout the flow.</text>

    <g fill="none" stroke="#64748b" stroke-width="2" marker-end="url(#arrow)">
      <path d="M250 232H274"/><path d="M470 232H494"/><path d="M690 232H714"/><path d="M910 232H934"/>
    </g>

    <g>
      <rect x="54" y="145" width="196" height="175" rx="20" fill="#181d36" stroke="#6366f1"/>
      <circle cx="84" cy="177" r="16" fill="#4f46e5"/><text x="84" y="183" fill="#fff" font-size="15" font-weight="700" text-anchor="middle">1</text>
      <text x="78" y="220" fill="#fff" font-size="19" font-weight="700">Pair</text>
      <text x="78" y="251" fill="#aab4c5" font-size="14">Exchange and verify a</text>
      <text x="78" y="273" fill="#aab4c5" font-size="14">signed contact offer.</text>

      <rect x="274" y="145" width="196" height="175" rx="20" fill="#181d36" stroke="#6366f1"/>
      <circle cx="304" cy="177" r="16" fill="#4f46e5"/><text x="304" y="183" fill="#fff" font-size="15" font-weight="700" text-anchor="middle">2</text>
      <text x="298" y="220" fill="#fff" font-size="19" font-weight="700">Establish</text>
      <text x="298" y="251" fill="#aab4c5" font-size="14">Consume ML-KEM prekeys</text>
      <text x="298" y="273" fill="#aab4c5" font-size="14">and derive session roots.</text>

      <rect x="494" y="145" width="196" height="175" rx="20" fill="#181d36" stroke="#6366f1"/>
      <circle cx="524" cy="177" r="16" fill="#4f46e5"/><text x="524" y="183" fill="#fff" font-size="15" font-weight="700" text-anchor="middle">3</text>
      <text x="518" y="220" fill="#fff" font-size="19" font-weight="700">Seal</text>
      <text x="518" y="251" fill="#aab4c5" font-size="14">Pad, ratchet, and encrypt</text>
      <text x="518" y="273" fill="#aab4c5" font-size="14">the payload locally.</text>

      <rect x="714" y="145" width="196" height="175" rx="20" fill="#12313b" stroke="#22d3ee"/>
      <circle cx="744" cy="177" r="16" fill="#0891b2"/><text x="744" y="183" fill="#fff" font-size="15" font-weight="700" text-anchor="middle">4</text>
      <text x="738" y="220" fill="#fff" font-size="19" font-weight="700">Route</text>
      <text x="738" y="251" fill="#aab4c5" font-size="14">Relay stores and forwards</text>
      <text x="738" y="273" fill="#aab4c5" font-size="14">only the sealed envelope.</text>

      <rect x="934" y="145" width="212" height="175" rx="20" fill="#181d36" stroke="#6366f1"/>
      <circle cx="964" cy="177" r="16" fill="#4f46e5"/><text x="964" y="183" fill="#fff" font-size="15" font-weight="700" text-anchor="middle">5</text>
      <text x="958" y="220" fill="#fff" font-size="19" font-weight="700">Open</text>
      <text x="958" y="251" fill="#aab4c5" font-size="14">Verify, decrypt, persist,</text>
      <text x="958" y="273" fill="#aab4c5" font-size="14">then acknowledge delivery.</text>
    </g>

    <text x="600" y="377" fill="#94a3b8" font-size="15" text-anchor="middle">Out-of-order windows, replay rejection, and explicit recovery requests protect the session as messages advance.</text>
  </g>
</svg>
