<svg xmlns="http://www.w3.org/2000/svg" viewBox="0 0 734 88" role="img" aria-labelledby="title desc">
  <title id="title">Noctweave wordmark</title>
  <desc id="desc">The uppercase Noctweave geometric wordmark.</desc>
  <g fill="#1B1217">
    <path d="M0 88V0h14l36 62V0h14v88H50L14 26v62Z"/>
    <path fill-rule="evenodd" d="M98 0h32c10 0 16 6 16 16v56c0 10-6 16-16 16H98c-10 0-16-6-16-16V16c0-10 6-16 16-16Zm1 13c-2 0-3 1-3 4v54c0 3 1 4 3 4h30c2 0 3-1 3-4V17c0-3-1-4-3-4Z"/>
    <path d="M180 0h48v13h-47c-2 0-3 1-3 4v54c0 3 1 4 3 4h47v13h-48c-10 0-16-6-16-16V16c0-10 6-16 16-16Z"/>
    <path d="M246 0h64v13h-25v75h-14V13h-25Z"/>
    <path d="M334 0 348 88 368 28 388 88 402 0" fill="none" stroke="#1B1217" stroke-width="13" stroke-linecap="butt" stroke-linejoin="miter"/>
    <path d="M424 0h64v13h-50v23h43v13h-43v26h50v13h-64Z"/>
    <path fill-rule="evenodd" d="M506 88 530 0h16l24 88h-15l-5-20h-24l-5 20Zm23-33h18l-9-36Z"/>
    <path d="M588 0h15l17 68 17-68h15l-24 88h-16Z"/>
    <path d="M670 0h64v13h-50v23h43v13h-43v26h50v13h-64Z"/>
  </g>
</svg>
